<mxfile host="app.diagrams.net" modified="2021-02-05T07:12:15.485Z" agent="5.0 (Windows NT 10.0; Win64; x64) AppleWebKit/537.36 (KHTML, like Gecko) Chrome/88.0.4324.104 Safari/537.36" etag="7-Ey12daQSEFfbav6grO" version="14.2.7" type="github">
  <diagram id="SnjyQFAsm4HH4ldZwJew" name="第 1 页">
    <mxGraphModel dx="669" dy="757" grid="1" gridSize="10" guides="1" tooltips="1" connect="1" arrows="1" fold="1" page="1" pageScale="1" pageWidth="827" pageHeight="1169" math="0" shadow="0">
      <root>
        <mxCell id="0" />
        <mxCell id="1" parent="0" />
        <mxCell id="1W1K1gSMzyrxyrV0WcvQ-1" value="309" style="ellipse;whiteSpace=wrap;html=1;aspect=fixed;" vertex="1" parent="1">
          <mxGeometry x="390" y="120" width="40" height="40" as="geometry" />
        </mxCell>
        <mxCell id="1W1K1gSMzyrxyrV0WcvQ-2" value="325" style="ellipse;whiteSpace=wrap;html=1;aspect=fixed;" vertex="1" parent="1">
          <mxGeometry x="390" y="220" width="40" height="40" as="geometry" />
        </mxCell>
        <mxCell id="1W1K1gSMzyrxyrV0WcvQ-3" value="" style="endArrow=classic;html=1;exitX=0.5;exitY=1;exitDx=0;exitDy=0;entryX=0.5;entryY=0;entryDx=0;entryDy=0;" edge="1" parent="1" source="1W1K1gSMzyrxyrV0WcvQ-1" target="1W1K1gSMzyrxyrV0WcvQ-2">
          <mxGeometry width="50" height="50" relative="1" as="geometry">
            <mxPoint x="390" y="430" as="sourcePoint" />
            <mxPoint x="440" y="380" as="targetPoint" />
          </mxGeometry>
        </mxCell>
        <mxCell id="1W1K1gSMzyrxyrV0WcvQ-4" value="326" style="ellipse;whiteSpace=wrap;html=1;aspect=fixed;" vertex="1" parent="1">
          <mxGeometry x="280" y="320" width="40" height="40" as="geometry" />
        </mxCell>
        <mxCell id="1W1K1gSMzyrxyrV0WcvQ-5" value="1321" style="ellipse;whiteSpace=wrap;html=1;aspect=fixed;" vertex="1" parent="1">
          <mxGeometry x="520" y="320" width="40" height="40" as="geometry" />
        </mxCell>
        <mxCell id="1W1K1gSMzyrxyrV0WcvQ-6" value="身故白名单" style="endArrow=classic;html=1;exitX=0;exitY=1;exitDx=0;exitDy=0;entryX=0.5;entryY=0;entryDx=0;entryDy=0;" edge="1" parent="1" source="1W1K1gSMzyrxyrV0WcvQ-2" target="1W1K1gSMzyrxyrV0WcvQ-4">
          <mxGeometry width="50" height="50" relative="1" as="geometry">
            <mxPoint x="390" y="430" as="sourcePoint" />
            <mxPoint x="440" y="380" as="targetPoint" />
          </mxGeometry>
        </mxCell>
        <mxCell id="1W1K1gSMzyrxyrV0WcvQ-7" value="" style="endArrow=classic;html=1;exitX=1;exitY=1;exitDx=0;exitDy=0;entryX=0.5;entryY=0;entryDx=0;entryDy=0;" edge="1" parent="1" source="1W1K1gSMzyrxyrV0WcvQ-2" target="1W1K1gSMzyrxyrV0WcvQ-5">
          <mxGeometry width="50" height="50" relative="1" as="geometry">
            <mxPoint x="390" y="430" as="sourcePoint" />
            <mxPoint x="440" y="380" as="targetPoint" />
          </mxGeometry>
        </mxCell>
        <mxCell id="1W1K1gSMzyrxyrV0WcvQ-8" value="非身故白名单" style="edgeLabel;html=1;align=center;verticalAlign=middle;resizable=0;points=[];" vertex="1" connectable="0" parent="1W1K1gSMzyrxyrV0WcvQ-7">
          <mxGeometry x="0.1438" y="3" relative="1" as="geometry">
            <mxPoint as="offset" />
          </mxGeometry>
        </mxCell>
        <mxCell id="1W1K1gSMzyrxyrV0WcvQ-9" value="accept" style="text;html=1;align=center;verticalAlign=middle;resizable=0;points=[];autosize=1;" vertex="1" parent="1">
          <mxGeometry x="225" y="320" width="50" height="20" as="geometry" />
        </mxCell>
        <mxCell id="1W1K1gSMzyrxyrV0WcvQ-10" value="grapid:36" style="text;html=1;align=center;verticalAlign=middle;resizable=0;points=[];autosize=1;" vertex="1" parent="1">
          <mxGeometry x="545" y="60" width="70" height="20" as="geometry" />
        </mxCell>
        <mxCell id="1W1K1gSMzyrxyrV0WcvQ-13" value="834" style="ellipse;whiteSpace=wrap;html=1;aspect=fixed;" vertex="1" parent="1">
          <mxGeometry x="450" y="440" width="40" height="40" as="geometry" />
        </mxCell>
        <mxCell id="1W1K1gSMzyrxyrV0WcvQ-14" value="是身故产品" style="endArrow=classic;html=1;exitX=0;exitY=1;exitDx=0;exitDy=0;entryX=0.5;entryY=0;entryDx=0;entryDy=0;" edge="1" parent="1" source="1W1K1gSMzyrxyrV0WcvQ-5" target="1W1K1gSMzyrxyrV0WcvQ-13">
          <mxGeometry width="50" height="50" relative="1" as="geometry">
            <mxPoint x="390" y="430" as="sourcePoint" />
            <mxPoint x="440" y="380" as="targetPoint" />
          </mxGeometry>
        </mxCell>
        <mxCell id="1W1K1gSMzyrxyrV0WcvQ-15" value="1322" style="ellipse;whiteSpace=wrap;html=1;aspect=fixed;" vertex="1" parent="1">
          <mxGeometry x="610" y="440" width="40" height="40" as="geometry" />
        </mxCell>
        <mxCell id="1W1K1gSMzyrxyrV0WcvQ-16" value="身故金额为0" style="endArrow=classic;html=1;exitX=1;exitY=1;exitDx=0;exitDy=0;entryX=0.5;entryY=0;entryDx=0;entryDy=0;" edge="1" parent="1" source="1W1K1gSMzyrxyrV0WcvQ-5" target="1W1K1gSMzyrxyrV0WcvQ-15">
          <mxGeometry width="50" height="50" relative="1" as="geometry">
            <mxPoint x="390" y="430" as="sourcePoint" />
            <mxPoint x="440" y="380" as="targetPoint" />
          </mxGeometry>
        </mxCell>
        <mxCell id="1W1K1gSMzyrxyrV0WcvQ-17" value="accept" style="text;html=1;align=center;verticalAlign=middle;resizable=0;points=[];autosize=1;" vertex="1" parent="1">
          <mxGeometry x="690" y="440" width="50" height="20" as="geometry" />
        </mxCell>
        <mxCell id="1W1K1gSMzyrxyrV0WcvQ-18" value="310" style="ellipse;whiteSpace=wrap;html=1;aspect=fixed;" vertex="1" parent="1">
          <mxGeometry x="340" y="530" width="40" height="40" as="geometry" />
        </mxCell>
        <mxCell id="1W1K1gSMzyrxyrV0WcvQ-19" value="835" style="ellipse;whiteSpace=wrap;html=1;aspect=fixed;" vertex="1" parent="1">
          <mxGeometry x="530" y="540" width="40" height="40" as="geometry" />
        </mxCell>
        <mxCell id="1W1K1gSMzyrxyrV0WcvQ-20" value="" style="endArrow=classic;html=1;exitX=0;exitY=1;exitDx=0;exitDy=0;entryX=1;entryY=0;entryDx=0;entryDy=0;" edge="1" parent="1" source="1W1K1gSMzyrxyrV0WcvQ-13" target="1W1K1gSMzyrxyrV0WcvQ-18">
          <mxGeometry width="50" height="50" relative="1" as="geometry">
            <mxPoint x="390" y="430" as="sourcePoint" />
            <mxPoint x="440" y="380" as="targetPoint" />
          </mxGeometry>
        </mxCell>
        <mxCell id="1W1K1gSMzyrxyrV0WcvQ-21" value="" style="endArrow=classic;html=1;exitX=1;exitY=1;exitDx=0;exitDy=0;entryX=0;entryY=0;entryDx=0;entryDy=0;" edge="1" parent="1" source="1W1K1gSMzyrxyrV0WcvQ-13" target="1W1K1gSMzyrxyrV0WcvQ-19">
          <mxGeometry width="50" height="50" relative="1" as="geometry">
            <mxPoint x="390" y="430" as="sourcePoint" />
            <mxPoint x="440" y="380" as="targetPoint" />
          </mxGeometry>
        </mxCell>
      </root>
    </mxGraphModel>
  </diagram>
</mxfile>
